<?xml version="1.0" encoding="UTF-8" standalone="no"?>
<svg
   xmlns:dc="http://purl.org/dc/elements/1.1/"
   xmlns:cc="http://creativecommons.org/ns#"
   xmlns:rdf="http://www.w3.org/1999/02/22-rdf-syntax-ns#"
   xmlns:svg="http://www.w3.org/2000/svg"
   xmlns="http://www.w3.org/2000/svg"
   xmlns:sodipodi="http://sodipodi.sourceforge.net/DTD/sodipodi-0.dtd"
   xmlns:inkscape="http://www.inkscape.org/namespaces/inkscape"
   version="1.1"
   id="svg2"
   xml:space="preserve"
   width="227.2"
   height="250.39999"
   viewBox="0 0 227.2 250.39999"
   sodipodi:docname="05 Logo Symbol Only.eps"><metadata
     id="metadata8"><rdf:RDF><cc:Work
         rdf:about=""><dc:format>image/svg+xml</dc:format><dc:type
           rdf:resource="http://purl.org/dc/dcmitype/StillImage" /></cc:Work></rdf:RDF></metadata><defs
     id="defs6" /><sodipodi:namedview
     pagecolor="#ffffff"
     bordercolor="#666666"
     borderopacity="1"
     objecttolerance="10"
     gridtolerance="10"
     guidetolerance="10"
     id="namedview4" /><g
     id="g10"
     inkscape:groupmode="layer"
     inkscape:label="ink_ext_XXXXXX"
     transform="matrix(1.3333333,0,0,-1.3333333,0,250.4)"><g
       id="g12"
       transform="scale(0.1)"><path
         d="m 1084.2,1415.34 0.02,-157.66 h 63.62 v 157.66 h -63.64"
         style="fill:#5c1237;fill-opacity:1;fill-rule:nonzero;stroke:none"
         id="path14" /><path
         d="m 1120.71,928.871 v 111.559 c 0,20.23 -16.06,37.84 -36.49,39.63 l 0.03,-151.189 h 36.46"
         style="fill:#5c1237;fill-opacity:1;fill-rule:nonzero;stroke:none"
         id="path16" /><path
         d="M 989.238,1406.08 V 1257.7 l -102.031,-13.4 v 140.84 l 70.731,20.94 31.3,9.26 z m 24.022,-148.4 v 157.66 h 70.94 l -0.03,304.06 c -1.15,0.63 -2.47,0.98 -3.85,0.98 -4.3,0 -7.56,-3.47 -7.56,-7.77 v -30.79 h -16.04 v -28.16 h -11.99 l -25.37,-46.09 h -16.29 v -31.05 h -0.09 -2.97 l -172.686,-136.24 -0.078,-33.73 h 26.184 v -0.47 -20.94 -140.84 -28.04 h -37.922 v -36.9 L 881.184,1149.72 771.68,162.09 c 26.367,-2.93 53.156,-4.442 80.3,-4.442 79.829,0 156.6,13.051 228.34,37.122 1.34,0.441 2.67,0.902 4,1.351 l -0.07,732.75 h -3.84 -0.09 -39.4 -1 v 111.559 c 0,20.5 16.48,38.39 37.31,39.76 0.88,0.1 2.19,0.2 3.09,0.2 0.03,0 0.04,0 0.09,0 0.9,0 2.12,-0.1 3.01,-0.2 0.27,-0.01 0.54,-0.11 0.8,-0.13 v 177.62 h -3.9 -67.06"
         style="fill:#5c1237;fill-opacity:1;fill-rule:nonzero;stroke:none"
         id="path18" /><path
         d="m 826.191,1591.98 c -122.031,-4.3 -236.296,-39.1 -335.437,-97 L 853.43,1385.14 v 20.94 0.47 h -26.184 l 0.078,33.73 172.686,136.24 h 2.97 c -48.683,10.43 -99.203,15.93 -151,15.93 -8.628,0 -17.222,-0.17 -25.789,-0.47"
         style="fill:#f19914;fill-opacity:1;fill-rule:nonzero;stroke:none"
         id="path20" /><path
         d="m 1333.81,1406.55 h -26.11 v -21.41 l 37.09,11.25 c -3.63,3.42 -7.29,6.82 -10.98,10.16"
         style="fill:#f19914;fill-opacity:1;fill-rule:nonzero;stroke:none"
         id="path22" /><path
         d="m 1497.19,1189.04 -189.49,55.26 v -28.04 h 37.9 v -36.9 l -65.67,-29.64 85.94,-775.24 c 125.94,129.25 203.51,305.86 203.51,500.571 0,112.609 -25.95,219.149 -72.19,313.989"
         style="fill:#f19914;fill-opacity:1;fill-rule:nonzero;stroke:none"
         id="path24" /><path
         d="m 815.508,1216.26 h 37.922 v 28.04 L 153.75,1040.4 C 141.223,987.32 134.578,931.961 134.578,875.051 134.578,505.98 413.27,202.012 771.68,162.09 l 109.504,987.63 -65.676,29.64 v 36.9"
         style="fill:#f19914;fill-opacity:1;fill-rule:nonzero;stroke:none"
         id="path26" /><path
         d="m 153.75,1040.4 699.68,203.9 v 140.84 L 490.754,1494.98 C 323.555,1397.36 199.426,1234.03 153.75,1040.4"
         style="fill:#f4ec07;fill-opacity:1;fill-rule:nonzero;stroke:none"
         id="path28" /><path
         d="m 1344.79,1396.39 -37.09,-11.25 V 1244.3 l 189.49,-55.26 c -38.09,78.12 -89.93,148.29 -152.4,207.35"
         style="fill:#f4ec07;fill-opacity:1;fill-rule:nonzero;stroke:none"
         id="path30" /><path
         d="m 1273.92,1244.3 -101.99,13.4 v 157.64 l 31.28,-9.26 70.71,-20.94 z m 6.01,-94.58 65.67,29.64 v 36.9 h -37.9 v 28.04 140.84 20.94 0.47 h 26.1 0.01 l -0.01,0.03 v 31.55 l -0.02,2.15 -172.67,136.24 h -3.05 v 31.05 h -16.31 l -25.37,46.09 h -11.98 v 28.16 h -16.06 v 30.79 c 0,4.3 -3.73,7.77 -8.02,7.77 v -165.04 -140 h 67.52 v -9.26 -148.4 h -67.52 v -177.29 c 0.03,0 0.04,0 0.09,0 0.9,0 2.12,-0.1 3.01,-0.2 20.82,-1.37 37.29,-19.26 37.29,-39.76 V 928.871 h -40.3 -0.09 V 194.77 c 109.31,36.66 206.88,98.941 285.55,179.71 l -85.94,775.24"
         style="fill:#4f112e;fill-opacity:1;fill-rule:nonzero;stroke:none"
         id="path32" /><path
         d="m 1203.21,1406.08 -31.28,9.26 V 1257.7 l 101.99,-13.4 v 140.84 l -70.71,20.94"
         style="fill:#fbc814;fill-opacity:1;fill-rule:nonzero;stroke:none"
         id="path34" /><path
         d="m 1083.42,1080.19 c -0.89,0.1 -2.2,0.2 -3.1,0.2 V 928.871 h 40.39 v 111.559 c 0,20.5 -16.47,38.39 -37.29,39.76"
         style="fill:#fbc814;fill-opacity:1;fill-rule:nonzero;stroke:none"
         id="path36" /><path
         d="m 1080.32,1406.08 v -148.4 h 67.52 v 157.66 h -67.52 v -9.26"
         style="fill:#fbc814;fill-opacity:1;fill-rule:nonzero;stroke:none"
         id="path38" /><path
         d="M 887.207,1385.14 V 1244.3 l 102.031,13.4 v 157.64 l -31.3,-9.26 -70.731,-20.94"
         style="fill:#f4ec07;fill-opacity:1;fill-rule:nonzero;stroke:none"
         id="path40" /><path
         d="m 1080.32,1406.08 v 9.26 h -67.06 v -157.66 h 67.06 v 148.4"
         style="fill:#f4ec07;fill-opacity:1;fill-rule:nonzero;stroke:none"
         id="path42" /><path
         d="M 1039.92,1040.43 V 928.871 h 40.4 v 151.519 c -0.9,0 -2.21,-0.1 -3.09,-0.2 -20.83,-1.37 -37.31,-19.26 -37.31,-39.76"
         style="fill:#f4ec07;fill-opacity:1;fill-rule:nonzero;stroke:none"
         id="path44" /><path
         d="m 1080.32,1406.08 v -148.4 h 67.52 v 157.66 h -67.52 v -9.26"
         style="fill:#fbc814;fill-opacity:1;fill-rule:nonzero;stroke:none"
         id="path46" /><path
         d="m 1080.32,1406.08 v 9.26 h -67.06 v -157.66 h 67.06 v 148.4"
         style="fill:#f4ec07;fill-opacity:1;fill-rule:nonzero;stroke:none"
         id="path48" /></g></g></svg>
